<?xml version="1.0" encoding="UTF-8"?>
<svg id="Calque_2" data-name="Calque 2" xmlns="http://www.w3.org/2000/svg" xmlns:xlink="http://www.w3.org/1999/xlink" viewBox="0 0 324.72 71">
  <defs>
    <style>
      .cls-1 {
        filter: url(#drop-shadow-1);
      }

      .cls-2 {
        fill: url(#Dégradé_sans_nom_46);
      }

      .cls-3, .cls-4 {
        opacity: .3;
      }

      .cls-3, .cls-5 {
        fill: #f4f4f4;
      }

      .cls-4 {
        fill: #606060;
      }

      .cls-6 {
        fill: #01152d;
      }

      .cls-7 {
        opacity: .7;
      }
    </style>
    <linearGradient id="Dégradé_sans_nom_46" data-name="Dégradé sans nom 46" x1="17.75" y1="4.75" x2="53.25" y2="66.25" gradientUnits="userSpaceOnUse">
      <stop offset="0" stop-color="#008471"/>
      <stop offset="1" stop-color="#01152d"/>
    </linearGradient>
    <filter id="drop-shadow-1" x="13.47" y="12.85" width="45.1" height="46.07" filterUnits="userSpaceOnUse">
      <feOffset dx="1.03" dy=".78"/>
      <feGaussianBlur result="blur" stdDeviation="0"/>
      <feFlood flood-color="#01152d" flood-opacity="1"/>
      <feComposite in2="blur" operator="in"/>
      <feComposite in="SourceGraphic"/>
    </filter>
  </defs>
  <g id="Calque_3" data-name="Calque 3">
    <g>
      <g>
        <path class="cls-6" d="M293.97,71H37.63V0h251.59C316.33,0,336.34,30.39,317.05,58.96c-4.52,6.69-15.01,12.04-23.08,12.04Z"/>
        <path class="cls-5" d="M289.22,2c12.42,0,23.77,6.82,29.6,17.8,6.23,11.72,4.98,25.59-3.43,38.04-4.08,6.05-13.9,11.16-21.43,11.16H39.63V2h249.59M289.22,0H37.63v71h256.34c8.08,0,18.57-5.35,23.08-12.04C336.34,30.39,316.33,0,289.22,0h0Z"/>
      </g>
      <circle class="cls-5" cx="37.36" cy="35.5" r="35.5"/>
      <g>
        <path class="cls-5" d="M82.64,47.46c-.66-.64-.99-1.5-.99-2.56v-25.9h13.41c2.19,0,4.11.41,5.78,1.24,1.67.83,2.96,2,3.87,3.51s1.37,3.27,1.37,5.25v8.58c0,3.56-.92,6.26-2.75,8.09s-4.53,2.75-8.09,2.75h-9.96c-1.09,0-1.97-.32-2.63-.97ZM95.1,44.09c1.99,0,3.5-.57,4.52-1.7,1.02-1.13,1.53-2.79,1.53-4.98v-8.24c0-1.74-.57-3.15-1.72-4.22-1.15-1.08-2.65-1.62-4.5-1.62h-8.37v20.77h8.54Z"/>
        <path class="cls-5" d="M110.61,27.45h4.5v2.86c.56-.87,1.37-1.58,2.42-2.12,1.05-.55,2.14-.82,3.26-.82h2.52v4.2h-2.52c-1.6,0-2.89.49-3.87,1.47s-1.47,2.26-1.47,3.83v11.56h-4.84v-20.98Z"/>
        <path class="cls-5" d="M128.92,47.79c-1.3-.64-2.31-1.56-3.03-2.73s-1.07-2.54-1.07-4.08v-5.63c0-1.62.36-3.06,1.07-4.31.71-1.25,1.72-2.21,3.03-2.9,1.3-.69,2.81-1.03,4.52-1.03h3.36c2.55,0,4.6.74,6.14,2.23,1.54,1.49,2.31,3.46,2.31,5.93v4.2h-15.6v1.51c0,1.12.34,2.02,1.03,2.69.69.67,1.6,1.01,2.75,1.01h3.24c1.12,0,2.02-.27,2.71-.82.69-.55,1.03-1.27,1.03-2.17h4.75c0,2.13-.79,3.84-2.35,5.13-1.57,1.29-3.63,1.93-6.18,1.93h-3.2c-1.71,0-3.22-.32-4.52-.97ZM140.5,35.85v-.59c0-1.23-.34-2.23-1.01-2.99-.67-.76-1.56-1.13-2.65-1.13h-3.41c-1.15,0-2.08.4-2.79,1.2s-1.07,1.84-1.07,3.13v.38h10.93Z"/>
        <path class="cls-5" d="M150.87,47.14c-1.3-1.08-1.96-2.52-1.96-4.31v-1.51c0-1.77.68-3.18,2.04-4.25s3.15-1.6,5.36-1.6h2.61c.78,0,1.62.11,2.52.34.9.22,1.7.52,2.4.88v-2.61c0-.87-.28-1.57-.84-2.1-.56-.53-1.29-.8-2.19-.8h-3.53c-.92,0-1.67.22-2.23.65-.56.43-.84,1-.84,1.7h-4.71c0-1.93.71-3.49,2.14-4.67,1.43-1.18,3.31-1.77,5.63-1.77h3.53c2.35,0,4.25.64,5.67,1.91,1.43,1.28,2.14,2.96,2.14,5.07v14.34h-4.5v-2.65c-.67.9-1.51,1.62-2.52,2.17-1.01.55-2,.82-2.98.82h-2.61c-2.13,0-3.85-.54-5.15-1.62ZM158.92,44.98c1.12,0,2.13-.32,3.03-.95.9-.63,1.53-1.46,1.89-2.5v-1.01c-.48-.39-1.15-.71-2.02-.95-.87-.24-1.78-.36-2.73-.36h-2.65c-.84,0-1.52.21-2.04.63-.52.42-.78.97-.78,1.64v1.18c0,.7.27,1.26.8,1.68.53.42,1.23.63,2.1.63h2.4Z"/>
        <path class="cls-5" d="M202.28,29.09c1.22,1.32,1.83,3.08,1.83,5.3v14.04h-4.83v-14.08c0-.93-.21-1.66-.63-2.21-.42-.55-.98-.82-1.68-.82h-2.02c-.92,0-1.71.33-2.35.99-.65.66-1.07,1.55-1.26,2.67v13.45h-4.79v-13.96c0-.95-.21-1.72-.63-2.29-.42-.57-.98-.86-1.68-.86h-1.89c-.93,0-1.73.41-2.42,1.24-.69.83-1.13,1.9-1.32,3.22v12.65h-4.83v-20.98h4.5v2.65c.53-.93,1.21-1.65,2.02-2.19.81-.53,1.64-.8,2.48-.8h2.4c1.06,0,2.02.27,2.86.82.84.55,1.5,1.31,1.97,2.29.62-.98,1.36-1.75,2.23-2.29.87-.55,1.79-.82,2.78-.82h2.4c2.04,0,3.68.66,4.9,1.98Z"/>
        <path class="cls-5" d="M228.37,23.24h-9.33v-4.25h23.58v4.25h-9.33v25.18h-4.92v-25.18Z"/>
        <path class="cls-5" d="M241.61,27.45h4.5v2.86c.56-.87,1.37-1.58,2.42-2.12,1.05-.55,2.14-.82,3.26-.82h2.52v4.2h-2.52c-1.6,0-2.89.49-3.87,1.47-.98.98-1.47,2.26-1.47,3.83v11.56h-4.83v-20.98Z"/>
        <path class="cls-5" d="M257.94,47.14c-1.3-1.08-1.95-2.52-1.95-4.31v-1.51c0-1.77.68-3.18,2.04-4.25s3.15-1.6,5.36-1.6h2.61c.78,0,1.62.11,2.52.34.9.22,1.7.52,2.4.88v-2.61c0-.87-.28-1.57-.84-2.1-.56-.53-1.29-.8-2.19-.8h-3.53c-.92,0-1.67.22-2.23.65s-.84,1-.84,1.7h-4.71c0-1.93.71-3.49,2.14-4.67,1.43-1.18,3.31-1.77,5.63-1.77h3.53c2.35,0,4.25.64,5.68,1.91s2.14,2.96,2.14,5.07v14.34h-4.5v-2.65c-.67.9-1.51,1.62-2.52,2.17-1.01.55-2,.82-2.98.82h-2.61c-2.13,0-3.85-.54-5.15-1.62ZM265.99,44.98c1.12,0,2.13-.32,3.03-.95.9-.63,1.53-1.46,1.89-2.5v-1.01c-.48-.39-1.15-.71-2.02-.95-.87-.24-1.78-.36-2.73-.36h-2.65c-.84,0-1.52.21-2.04.63-.52.42-.78.97-.78,1.64v1.18c0,.7.27,1.26.8,1.68.53.42,1.23.63,2.1.63h2.4Z"/>
        <path class="cls-5" d="M282.2,46.51c-1.47-1.5-2.21-3.47-2.21-5.91v-4.88c0-1.71.35-3.22,1.05-4.52.7-1.3,1.69-2.31,2.96-3.03,1.27-.71,2.74-1.07,4.39-1.07h2.56c.87,0,1.73.2,2.59.59.85.39,1.56.91,2.12,1.56v-10.26h4.79v29.43h-4.5v-2.9c-.59.98-1.37,1.77-2.35,2.35-.98.59-1.98.88-2.98.88h-2.65c-2.38,0-4.31-.75-5.78-2.25ZM291.01,44.6c1.2,0,2.25-.48,3.13-1.45s1.39-2.17,1.54-3.59v-4.2c-.2-1.21-.67-2.19-1.41-2.94-.74-.76-1.63-1.13-2.67-1.13h-2.69c-1.23,0-2.22.43-2.96,1.3-.74.87-1.11,2-1.11,3.41v4.33c0,1.29.34,2.33,1.03,3.11.69.79,1.56,1.18,2.63,1.18h2.52Z"/>
      </g>
      <g>
        <circle class="cls-2" cx="35.5" cy="35.5" r="35.5"/>
        <g class="cls-7">
          <path class="cls-3" d="M31.14,15.97c-3.85-.04-7.68-.3-11.5-.77,3.85.04,7.68.3,11.5.77h0Z"/>
          <rect class="cls-3" x="57.48" y="35.66" width="3.7" height="3.7"/>
          <rect class="cls-3" x="29.11" y="60.96" width="3.7" height="3.7"/>
          <rect class="cls-3" x="37.36" y="25.87" width="3.7" height="3.7"/>
          <path class="cls-3" d="M54.6,19.47c1.76,5.25,3.38,10.82,4.73,16.19-1.75-5.25-3.39-10.82-4.73-16.19h0Z"/>
          <path class="cls-3" d="M59.38,39.36c-1.45,2.32-4.16,5.67-5.82,7.88-1.7,2.19-4.21,5.67-6.07,7.69,1.45-2.32,4.16-5.67,5.82-7.88,1.7-2.19,4.21-5.67,6.07-7.69h0Z"/>
          <path class="cls-3" d="M44.91,58.03c-1.62.85-4.27,1.63-6,2.26-1,.35-3.57,1.25-4.54,1.59,0,0-1.56.38-1.56.38l1.46-.68c.95-.33,3.55-1.24,4.54-1.59,1.76-.58,4.3-1.62,6.1-1.97h0Z"/>
          <line class="cls-4" x1="29.11" y1="62.81" x2="20.12" y2="58.21"/>
          <path class="cls-3" d="M29.05,62.77c-1.5-.87-3.45-2.63-4.83-3.71-.78-.63-2.79-2.26-3.54-2.88,0,0-1.08-1.08-1.08-1.08l1.28.84c.74.6,2.77,2.25,3.54,2.88,1.34,1.13,3.46,2.67,4.63,3.96h0Z"/>
          <path class="cls-3" d="M28.5,35.25c-2.93.41-5.88.62-8.84.61,2.93-.42,5.88-.62,8.84-.61h0Z"/>
          <path class="cls-3" d="M34.66,35.6c1.27-2.13,2.71-4.15,4.33-6.03-1.27,2.13-2.71,4.15-4.33,6.03h0Z"/>
          <path class="cls-3" d="M39.21,25.87c-1.82-2-3.47-4.14-4.94-6.4,1.82,2,3.46,4.14,4.94,6.4h0Z"/>
          <path class="cls-3" d="M32.61,38.84c3.02,5.22,5.99,10.81,8.64,16.23-3.02-5.23-6-10.81-8.64-16.23h0Z"/>
        </g>
        <g class="cls-1">
          <g>
            <rect class="cls-5" x="13.88" y="13.27" width="5.3" height="5.89"/>
            <path class="cls-5" d="M19.6,19.57h-6.13v-6.72h6.13v6.72ZM14.3,18.74h4.47v-5.06h-4.47v5.06Z"/>
          </g>
          <g>
            <rect class="cls-5" x="13.88" y="32.56" width="5.3" height="5.89"/>
            <path class="cls-5" d="M19.6,38.86h-6.13v-6.72h6.13v6.72ZM14.3,38.03h4.47v-5.06h-4.47v5.06Z"/>
          </g>
          <g>
            <rect class="cls-5" x="28.96" y="32.58" width="5.3" height="5.89"/>
            <path class="cls-5" d="M34.67,38.89h-6.13v-6.72h6.13v6.72ZM29.37,38.06h4.47v-5.06h-4.47v5.06Z"/>
          </g>
          <g>
            <rect class="cls-5" x="13.88" y="51.84" width="5.3" height="5.89"/>
            <path class="cls-5" d="M19.6,58.15h-6.13v-6.72h6.13v6.72ZM14.3,57.32h4.47v-5.06h-4.47v5.06Z"/>
          </g>
          <g>
            <rect class="cls-5" x="41.71" y="13.27" width="5.3" height="5.89"/>
            <path class="cls-5" d="M47.43,19.57h-6.13v-6.72h6.13v6.72ZM42.13,18.74h4.47v-5.06h-4.47v5.06Z"/>
          </g>
          <g>
            <rect class="cls-5" x="31.61" y="13.27" width="5.3" height="5.89"/>
            <path class="cls-5" d="M37.32,19.57h-6.13v-6.72h6.13v6.72ZM32.02,18.74h4.47v-5.06h-4.47v5.06Z"/>
          </g>
          <g>
            <rect class="cls-5" x="51.82" y="13.27" width="5.3" height="5.89"/>
            <path class="cls-5" d="M57.53,19.57h-6.13v-6.72h6.13v6.72ZM52.23,18.74h4.47v-5.06h-4.47v5.06Z"/>
          </g>
          <g>
            <rect class="cls-5" x="41.71" y="51.84" width="5.3" height="5.89"/>
            <path class="cls-5" d="M47.43,58.15h-6.13v-6.72h6.13v6.72ZM42.13,57.32h4.47v-5.06h-4.47v5.06Z"/>
          </g>
          <rect class="cls-5" x="15.65" y="19.3" width="1.77" height="13.8"/>
          <rect class="cls-5" x="15.65" y="38.65" width="1.77" height="13.05"/>
          <rect class="cls-5" x="43.48" y="19.13" width="1.77" height="32.71"/>
          <path class="cls-5" d="M30.99,32.53c-.12-1.87-.7-6.58-3.44-10.08-1.3-1.66-3.86-3.98-8.64-5.54l.55-1.68c4.17,1.37,7.36,3.43,9.48,6.13,3.05,3.89,3.68,9.03,3.81,11.06l-1.77.11Z"/>
          <path class="cls-5" d="M19.47,55.2l-.28-1.75c1.22-.19,5.41-1.09,8.35-4.49,3.43-3.98,3.28-9.62,3.25-10.25l1.77-.08c.03.7.2,6.99-3.68,11.49-3.24,3.75-7.66,4.8-9.41,5.08Z"/>
          <rect class="cls-5" x="36.89" y="15.33" width="4.58" height="1.77"/>
          <rect class="cls-5" x="47.42" y="15.32" width="4" height="1.78"/>
        </g>
      </g>
    </g>
  </g>
</svg>